<svg width="25" height="25" viewBox="0 0 25 25" fill="none" xmlns="http://www.w3.org/2000/svg">
<path d="M12.5 9.375C10.8062 9.375 9.375 10.8062 9.375 12.5C9.375 14.1937 10.8062 15.625 12.5 15.625C14.1937 15.625 15.625 14.1937 15.625 12.5C15.625 10.8062 14.1937 9.375 12.5 9.375Z" fill="black"/>
<path d="M20.8333 5.20834H18.1395L15.3197 2.38855C15.2231 2.29163 15.1084 2.21477 14.982 2.16239C14.8556 2.11001 14.7201 2.08315 14.5833 2.08334H10.4166C10.2798 2.08315 10.1443 2.11001 10.0179 2.16239C9.89148 2.21477 9.7767 2.29163 9.68013 2.38855L6.86034 5.20834H4.16659C3.01763 5.20834 2.08325 6.14272 2.08325 7.29168V18.75C2.08325 19.899 3.01763 20.8333 4.16659 20.8333H20.8333C21.9822 20.8333 22.9166 19.899 22.9166 18.75V7.29168C22.9166 6.14272 21.9822 5.20834 20.8333 5.20834ZM12.4999 17.7083C9.677 17.7083 7.29159 15.3229 7.29159 12.5C7.29159 9.6771 9.677 7.29168 12.4999 7.29168C15.3228 7.29168 17.7083 9.6771 17.7083 12.5C17.7083 15.3229 15.3228 17.7083 12.4999 17.7083Z" fill="black"/>
</svg>
